<?xml version="1.0" encoding="UTF-8" standalone="no"?>
<!-- Created with Inkscape (http://www.inkscape.org/) -->

<svg
   width="32"
   height="32"
   viewBox="0 0 8.4666667 8.4666667"
   version="1.1"
   id="svg5"
   inkscape:version="1.1 (1:1.1+202105261517+ce6663b3b7)"
   sodipodi:docname="ico_32x32_white.svg"
   inkscape:export-filename="/home/jfellows/Documents/git/jfy133/starter_hugo_academic/assets/media/icon.png"
   inkscape:export-xdpi="1536"
   inkscape:export-ydpi="1536"
   xmlns:inkscape="http://www.inkscape.org/namespaces/inkscape"
   xmlns:sodipodi="http://sodipodi.sourceforge.net/DTD/sodipodi-0.dtd"
   xmlns="http://www.w3.org/2000/svg"
   xmlns:svg="http://www.w3.org/2000/svg">
  <sodipodi:namedview
     id="namedview7"
     pagecolor="#ffffff"
     bordercolor="#666666"
     borderopacity="1.0"
     inkscape:pageshadow="2"
     inkscape:pageopacity="0.0"
     inkscape:pagecheckerboard="0"
     inkscape:document-units="px"
     showgrid="false"
     inkscape:zoom="13.59375"
     inkscape:cx="32.183908"
     inkscape:cy="30.16092"
     inkscape:window-width="1920"
     inkscape:window-height="1043"
     inkscape:window-x="0"
     inkscape:window-y="0"
     inkscape:window-maximized="1"
     inkscape:current-layer="text1972">
    <inkscape:grid
       type="xygrid"
       id="grid824" />
  </sodipodi:namedview>
  <defs
     id="defs2" />
  <g
     inkscape:label="Layer 1"
     inkscape:groupmode="layer"
     id="layer1">
    <g
       aria-label="jfy"
       id="text1972"
       style="font-size:4.23333px;line-height:1.25;font-family:Kalam;-inkscape-font-specification:Kalam;letter-spacing:0px;stroke-width:0.264583">
      <path
         style="color:#000000;-inkscape-font-specification:'Libertinus Serif';fill:#ffffff;-inkscape-stroke:none"
         d="m 2.5071956,3.8777338 v 1.0202325 c 0,0.5587996 -0.016933,1.0794991 -0.2285998,1.0794991 -0.046567,0 -0.1015999,-0.016933 -0.1312332,-0.046567 -0.042333,-0.042333 -0.093133,-0.1100666 -0.1862665,-0.1100666 -0.046567,0 -0.1354666,0.084667 -0.1354666,0.1608665 0,0.1227666 0.1523999,0.1820332 0.2328331,0.1820332 0.0889,0 0.3090331,-0.0127 0.4656663,-0.1439332 C 2.7230954,5.8589322 2.8416287,5.5541324 2.8416287,4.7540331 V 3.8608005 c 0,-0.2116665 0.016933,-0.4825996 0.016933,-0.4825996 0,-0.016933 -0.021167,-0.029633 -0.055033,-0.029633 -0.1185332,0.046567 -0.2878664,0.084667 -0.5799662,0.1227666 -0.00847,0.0254 0,0.093133 0.00847,0.1185332 0.2285998,0.021167 0.2751664,0.046567 0.2751664,0.2878664 z M 2.447929,2.6839348 c 0,0.1100666 0.1015999,0.2201332 0.2031998,0.2201332 0.1185332,0 0.2201332,-0.1142999 0.2201332,-0.2031998 0,-0.1015999 -0.0889,-0.2201332 -0.2031999,-0.2201332 -0.1015999,0 -0.2201331,0.1015999 -0.2201331,0.2031998 z"
         id="path1071" />
      <path
         d="M 3.9211251,4.7032332 V 3.5687008 h 0.3936996 c 0.0381,0 0.097367,-0.016933 0.097367,-0.055033 v -0.084667 c 0,-0.016933 -0.0127,-0.0254 -0.033867,-0.0254 H 3.9211251 V 3.1623011 c 0,-0.6519328 0.1947331,-0.7535327 0.334433,-0.7535327 0.1269999,0 0.1947332,0.0508 0.2539998,0.1989665 0.033867,0.0762 0.080433,0.1354666 0.1693332,0.1354666 0.071967,0 0.1735665,-0.0889 0.1735665,-0.1735666 0,-0.071967 -0.046567,-0.1481665 -0.1354665,-0.2158998 -0.1100666,-0.0762 -0.2201332,-0.0889 -0.3809997,-0.0889 -0.3555997,0 -0.7492994,0.3090331 -0.7492994,0.9694325 V 3.4036009 H 3.3707922 c -0.0762,0 -0.097367,0.0508 -0.097367,0.084667 v 0.055033 c 0,0.021167 0.00423,0.0254 0.021167,0.0254 H 3.586692 v 1.1345324 c 0,0.3513663 -0.067733,0.3682996 -0.2963331,0.385233 -0.0254,0.0254 -0.0254,0.1142999 0,0.1396998 0.1481666,-0.00423 0.2963331,-0.00847 0.4656663,-0.00847 0.1693332,0 0.372533,0.00423 0.5206996,0.00847 0.0254,-0.0254 0.0254,-0.1142999 0,-0.1396998 C 3.9465251,5.0715328 3.9211251,5.0545995 3.9211251,4.7032332 Z"
         style="font-family:'Libertinus Serif';-inkscape-font-specification:'Libertinus Serif';fill:#ffffff"
         id="path1073" />
      <path
         d="M 5.3562216,5.8970321 C 5.4239549,5.7784989 5.4789882,5.6599657 5.5297882,5.5329658 5.8684546,4.7159331 6.0589544,4.2799002 6.2790875,3.8057672 6.3637541,3.6279674 6.4230208,3.5602341 6.6219873,3.5348341 c 0.0254,-0.0254 0.0254,-0.1142999 0,-0.1396998 -0.084667,0.00423 -0.1820332,0.00847 -0.3005665,0.00847 -0.1269999,0 -0.2582331,-0.00423 -0.385233,-0.00847 -0.0254,0.0254 -0.0254,0.1142999 0,0.1396998 0.1354666,0.0127 0.2709331,0.0381 0.2031999,0.1904999 L 5.720288,4.6947665 c -0.029633,0.067733 -0.067733,0.080433 -0.1015999,-0.00423 L 5.2419217,3.8100006 c -0.0762,-0.1777999 -0.097366,-0.2582331 0.1396999,-0.2751665 0.0254,-0.0254 0.0254,-0.1142999 0,-0.1396998 -0.1566332,0.00423 -0.3259664,0.00847 -0.4783662,0.00847 -0.1439332,0 -0.2582332,-0.00423 -0.3428997,-0.00847 -0.0254,0.0254 -0.0254,0.1142999 0,0.1396998 0.1693331,0.021167 0.2243664,0.059267 0.334433,0.3174998 L 5.373155,4.9656996 c 0.0381,0.084667 0.1015999,0.2793998 0.059267,0.397933 -0.0508,0.1396999 -0.1015999,0.2582331 -0.1650999,0.3894663 -0.046567,0.084667 -0.1058332,0.1227666 -0.2116665,0.1227666 -0.059267,0 -0.0762,-0.0127 -0.1227665,-0.0127 -0.1227666,0 -0.1862665,0.1269999 -0.1862665,0.1820332 0,0.0889 0.084667,0.1566332 0.1989665,0.1566332 0.0889,0 0.2582331,-0.033867 0.4106329,-0.3047998 z"
         style="font-family:'Libertinus Serif';-inkscape-font-specification:'Libertinus Serif';fill:#ffffff"
         id="path1075" />
      <ellipse
         style="fill:#984ea3;stroke:none;stroke-width:0.264583;stroke-linecap:round;stroke-linejoin:round;stroke-miterlimit:4;stroke-dasharray:none;stroke-opacity:0.994461;stop-color:#000000;fill-opacity:1"
         id="path1356"
         cx="2.6598694"
         cy="2.6926119"
         rx="0.21194044"
         ry="0.22284716" />
    </g>
    <ellipse
       style="fill:none;stroke:#ffffff;stroke-width:0.26458333;stroke-linecap:round;stroke-linejoin:round;stroke-miterlimit:4;stroke-dasharray:none;stroke-opacity:0.994461;stop-color:#000000"
       id="path3376"
       cx="4.2333336"
       cy="4.2333336"
       rx="3.533159"
       ry="3.3791633" />
  </g>
</svg>
